<svg width="10" height="8" viewBox="0 0 10 8" fill="none" xmlns="http://www.w3.org/2000/svg">
<path d="M3.1501 7.41484C3.21909 7.51113 3.31004 7.58959 3.4154 7.64372C3.52076 7.69784 3.63751 7.72608 3.75596 7.72608C3.87441 7.72608 3.99116 7.69784 4.09652 7.64372C4.20189 7.58959 4.29283 7.51113 4.36182 7.41484L9.29776 0.571094C9.38682 0.446875 9.29776 0.273438 9.14542 0.273438H8.0462C7.80713 0.273438 7.57979 0.388281 7.43916 0.585156L3.75713 5.69453L2.08838 3.37891C1.94776 3.18438 1.72276 3.06719 1.48135 3.06719H0.382133C0.229789 3.06719 0.140727 3.24062 0.229789 3.36484L3.1501 7.41484Z" fill="white"/>
</svg>
