<svg width="116" height="48" viewBox="0 0 116 48" fill="none" xmlns="http://www.w3.org/2000/svg">
<path d="M5.69672 11.3229C6.15584 10.4856 6.81376 9.77335 7.61287 9.24857L21.0431 0L7.29494 22.44C7.29494 22.44 6.09198 20.4429 5.62798 19.4229C5.0437 18.1517 4.7502 16.7668 4.76872 15.3686C4.77751 13.9685 5.0943 12.5874 5.69672 11.3229V11.3229ZM0.154496 26.8114C0.309646 28.9635 0.927079 31.0571 1.96489 32.9501C3.00271 34.8432 4.43662 36.4914 6.16931 37.7829L21.0259 48C21.0259 48 11.7287 34.7914 3.88368 21.6429C3.09123 20.25 2.55847 18.7253 2.31124 17.1429C2.19959 16.43 2.19959 15.7042 2.31124 14.9914C2.10501 15.36 1.70975 16.1314 1.70975 16.1314C0.917811 17.7342 0.375956 19.4483 0.10294 21.2143C-0.0517658 23.0776 -0.0345081 24.9512 0.154496 26.8114V26.8114ZM38.0392 28.5857C37.5581 27.5743 36.3207 25.5686 36.3207 25.5686L22.6241 48L36.0887 38.76C36.8857 38.2317 37.5407 37.5166 37.9963 36.6771C38.608 35.417 38.9336 34.0377 38.95 32.6377C38.9663 31.2376 38.673 29.8512 38.0908 28.5771L38.0392 28.5857ZM43.4955 21.1971C43.3404 19.0451 42.723 16.9515 41.6851 15.0584C40.6473 13.1654 39.2134 11.5172 37.4807 10.2257L22.6413 0C22.6413 0 31.9385 13.2086 39.7835 26.3571C40.576 27.75 41.1087 29.2747 41.356 30.8571C41.459 31.5706 41.459 32.2951 41.356 33.0086L41.9575 31.8686C42.7488 30.2723 43.2879 28.5635 43.5557 26.8029C43.7275 24.9411 43.7275 23.0675 43.5557 21.2057L43.4955 21.1971Z" fill="url(#paint0_linear_140_2998)"/>
<path d="M63.0609 34.6371H54.5542V12.5657H62.7859C64.8021 12.5198 66.7945 13.0078 68.5601 13.98C70.2002 14.9015 71.5532 16.2571 72.4697 17.8971C73.4431 19.6561 73.9351 21.6397 73.8961 23.6486C73.9356 25.6423 73.456 27.6122 72.5041 29.3657C71.6257 30.9929 70.3068 32.3412 68.6976 33.2571C66.9734 34.2045 65.0288 34.6806 63.0609 34.6371V34.6371ZM59.0997 14.64V32.64L56.9515 30.48H62.6055C63.8242 30.5182 65.0321 30.2406 66.1112 29.6743C67.0746 29.1439 67.847 28.3255 68.3195 27.3343C68.8695 26.1877 69.1404 24.9278 69.11 23.6571C69.1299 22.3688 68.835 21.0949 68.2508 19.9457C67.7332 18.9397 66.9211 18.1146 65.9222 17.58C64.8152 16.9921 63.5757 16.697 62.3219 16.7228H56.9086L59.0567 14.6314L59.0997 14.64Z" fill="url(#paint1_linear_140_2998)"/>
<path d="M78.5709 34.6371H73.8965L81.879 12.5657H86.3643L94.3469 34.6371H89.535L87.868 29.8114H80.2378L78.5709 34.6371ZM83.4686 20.5028L81.5697 26.04H86.5276L84.62 20.5028L84.2591 19.4571C84.156 19.08 84.0873 18.7714 84.0443 18.5314C83.9157 19.2053 83.723 19.8654 83.4686 20.5028V20.5028Z" fill="url(#paint2_linear_140_2998)"/>
<path d="M116 23.5886C116.042 25.6482 115.563 27.6851 114.608 29.5115C113.735 31.1936 112.403 32.5958 110.767 33.5572C109.027 34.5025 107.077 34.9977 105.096 34.9977C103.115 34.9977 101.165 34.5025 99.425 33.5572C97.8072 32.596 96.487 31.2078 95.6098 29.5458C94.6737 27.7106 94.2073 25.6729 94.2522 23.6144C94.2055 21.5474 94.6719 19.5009 95.6098 17.6572C96.4922 15.9905 97.8221 14.6015 99.4507 13.6458C101.187 12.6844 103.14 12.1799 105.126 12.1799C107.112 12.1799 109.065 12.6844 110.802 13.6458C112.424 14.5982 113.744 15.9888 114.608 17.6572C115.567 19.4852 116.046 21.5259 116 23.5886V23.5886ZM111.223 23.5886C111.258 22.2908 110.999 21.0018 110.466 19.8172C110.03 18.8178 109.303 17.9725 108.378 17.3915C107.408 16.7916 106.28 16.4933 105.139 16.5344C103.99 16.4959 102.855 16.7938 101.874 17.3915C100.941 17.9729 100.203 18.8171 99.7515 19.8172C99.2391 21.0071 98.9928 22.2941 99.0297 23.5886C98.999 24.891 99.245 26.1851 99.7515 27.3858C100.21 28.3907 100.946 29.2442 101.874 29.8458C102.86 30.4327 103.991 30.7298 105.139 30.7029C106.28 30.744 107.408 30.4456 108.378 29.8458C109.298 29.2482 110.024 28.3964 110.466 27.3944C110.99 26.2067 111.248 24.9199 111.223 23.6229V23.5886Z" fill="url(#paint3_linear_140_2998)"/>
<defs>
<linearGradient id="paint0_linear_140_2998" x1="40.5139" y1="84.3171" x2="11.2678" y2="-10.5321" gradientUnits="userSpaceOnUse">
<stop stop-color="#DE82FF"/>
<stop offset="1" stop-color="#7F6AFF"/>
</linearGradient>
<linearGradient id="paint1_linear_140_2998" x1="78.0378" y1="72.7457" x2="48.7917" y2="-22.1036" gradientUnits="userSpaceOnUse">
<stop stop-color="#DE82FF"/>
<stop offset="1" stop-color="#7F6AFF"/>
</linearGradient>
<linearGradient id="paint2_linear_140_2998" x1="94.3297" y1="67.7228" x2="65.0836" y2="-27.1265" gradientUnits="userSpaceOnUse">
<stop stop-color="#DE82FF"/>
<stop offset="1" stop-color="#7F6AFF"/>
</linearGradient>
<linearGradient id="paint3_linear_140_2998" x1="116.662" y1="60.8315" x2="87.4156" y2="-34.0092" gradientUnits="userSpaceOnUse">
<stop stop-color="#DE82FF"/>
<stop offset="1" stop-color="#7F6AFF"/>
</linearGradient>
</defs>
</svg>
