<svg width="190" height="161" viewBox="0 0 190 161" fill="none" xmlns="http://www.w3.org/2000/svg">
<circle cx="102.5" cy="80.5" r="80.5" fill="white"/>
<path d="M154.416 26V22.976H166.608V26H154.416ZM155.856 18.584V15.56H165.168V18.584H155.856ZM154.896 11.888V8.864H166.128V11.888H154.896Z" fill="#5754CE"/>
<path d="M13.416 27V23.976H25.608V27H13.416ZM14.856 19.584V16.56H24.168V19.584H14.856ZM13.896 12.888V9.864H25.128V12.888H13.896Z" fill="#D4A3FF"/>
<path d="M175.416 124V120.976H187.608V124H175.416ZM176.856 116.584V113.56H186.168V116.584H176.856ZM175.896 109.888V106.864H187.128V109.888H175.896Z" fill="#5754CE"/>
<path d="M48.2836 83.2746L42.3328 82.4098L39.6726 77.0168C39.6 76.8691 39.4805 76.7496 39.3328 76.677C38.9625 76.4941 38.5125 76.6465 38.3273 77.0168L35.6672 82.4098L29.7164 83.2746C29.5523 83.2981 29.4023 83.3754 29.2875 83.4926C29.1486 83.6353 29.0721 83.8273 29.0748 84.0264C29.0774 84.2254 29.159 84.4153 29.3015 84.5543L33.607 88.752L32.5898 94.6793C32.566 94.8172 32.5812 94.959 32.6339 95.0886C32.6865 95.2183 32.7744 95.3306 32.8876 95.4128C33.0009 95.4951 33.1349 95.5439 33.2744 95.5539C33.414 95.5638 33.5536 95.5345 33.6773 95.4692L39 92.6707L44.3226 95.4692C44.468 95.5465 44.6367 95.5723 44.7984 95.5441C45.2062 95.4738 45.4805 95.0871 45.4101 94.6793L44.393 88.752L48.6984 84.5543C48.8156 84.4395 48.893 84.2895 48.9164 84.1254C48.9797 83.7152 48.6937 83.3356 48.2836 83.2746V83.2746Z" fill="#EEEEF7"/>
<path d="M21.2836 34.2746L15.3328 33.4098L12.6726 28.0168C12.6 27.8691 12.4805 27.7496 12.3328 27.677C11.9625 27.4941 11.5125 27.6465 11.3273 28.0168L8.66717 33.4098L2.71639 34.2746C2.55233 34.2981 2.40233 34.3754 2.28748 34.4926C2.14864 34.6353 2.07214 34.8273 2.07477 35.0264C2.07741 35.2254 2.15897 35.4153 2.30155 35.5543L6.60701 39.752L5.58983 45.6793C5.56597 45.8172 5.58123 45.959 5.63387 46.0886C5.68651 46.2183 5.77442 46.3306 5.88764 46.4128C6.00086 46.4951 6.13486 46.5439 6.27444 46.5539C6.41401 46.5638 6.55358 46.5345 6.67733 46.4692L12 43.6707L17.3226 46.4692C17.468 46.5465 17.6367 46.5723 17.7984 46.5441C18.2062 46.4738 18.4805 46.0871 18.4101 45.6793L17.393 39.752L21.6984 35.5543C21.8156 35.4395 21.893 35.2895 21.9164 35.1254C21.9797 34.7152 21.6937 34.3356 21.2836 34.2746V34.2746Z" fill="#EEEEF7"/>
<path d="M168.874 66.4211H163.711L168.354 60.5547C168.45 60.4305 168.364 60.25 168.206 60.25H159.218C159.153 60.25 159.089 60.2852 159.056 60.3438L152.984 70.832C152.911 70.9563 153 71.1133 153.146 71.1133H157.233L155.138 79.4945C155.093 79.6773 155.314 79.8062 155.449 79.675L169.003 66.7422C169.125 66.6273 169.043 66.4211 168.874 66.4211Z" fill="#EEEEF7"/>
<mask id="mask0_9_513" style="mask-type:alpha" maskUnits="userSpaceOnUse" x="37" y="2" width="129" height="145">
<path d="M151.712 102.176C148.645 96.3969 121.862 44.8136 136.369 17.7305V17.732C138.775 13.0317 142.957 8.97419 148.39 6.0646L62.0838 2.43384C60.5653 2.52103 59.0674 2.75612 57.629 3.136C50.4024 4.90156 44.5418 8.95876 41.5745 14.2542C26.5394 38.8303 53.1183 90.6488 56.1987 96.4759C56.922 97.8709 57.783 99.3921 58.6974 101.047C61.3851 105.897 64.6315 111.84 67.0255 117.745L132.038 120.336H132.036C134.045 120.419 135.872 121.244 136.926 122.542C137.98 123.841 138.128 125.449 137.321 126.846C135.778 129.32 135.258 132.088 135.829 134.789C136.4 137.491 138.038 139.997 140.524 141.982C143.183 144.175 146.734 145.632 150.614 146.121L152.94 146.209L153.233 146.233V146.231C155.609 146.174 157.929 145.668 159.984 144.763C172.257 139.434 161.04 119.072 154.324 106.908C153.357 105.2 152.455 103.606 151.735 102.187L151.712 102.176Z" fill="url(#paint0_linear_9_513)"/>
</mask>
<g mask="url(#mask0_9_513)">
<rect x="26" y="-25" width="168" height="149" fill="url(#paint1_linear_9_513)"/>
</g>
<rect x="64" y="68" width="58" height="3" fill="#EEEEF7"/>
<rect x="69" y="78" width="58" height="3" fill="#EEEEF7"/>
<rect x="75" y="88" width="58" height="3" fill="#EEEEF7"/>
<circle cx="69.5" cy="45.5" r="7.5" fill="#EEEEF7"/>
<defs>
<linearGradient id="paint0_linear_9_513" x1="101.234" y1="2.43384" x2="101.234" y2="146.233" gradientUnits="userSpaceOnUse">
<stop stop-color="#7D98FB"/>
<stop offset="1" stop-color="#50B2F3"/>
</linearGradient>
<linearGradient id="paint1_linear_9_513" x1="110" y1="-25" x2="110" y2="124" gradientUnits="userSpaceOnUse">
<stop stop-color="#C17BFF"/>
<stop offset="1" stop-color="white"/>
</linearGradient>
</defs>
</svg>
