<svg viewBox="0 0 16 16" fill="none" xmlns="http://www.w3.org/2000/svg">
<circle cx="8" cy="8" r="8" fill="#75B1DD"/>
<path d="M11 8.50067H10.66L9.66 9.50067H10.615L11.5 10.5007H4.5L5.39 9.50067H6.415L5.415 8.50067H5L3.5 10.0007V12.0007C3.5 12.5507 3.945 13.0007 4.495 13.0007H11.5C11.7652 13.0007 12.0196 12.8953 12.2071 12.7078C12.3946 12.5202 12.5 12.2659 12.5 12.0007V10.0007L11 8.50067ZM10.5 5.97567L8.025 8.45067L6.255 6.68067L8.73 4.20567L10.5 5.97567ZM8.38 3.14567L5.195 6.33067C5.14865 6.37693 5.11187 6.43187 5.08678 6.49236C5.06169 6.55285 5.04878 6.61769 5.04878 6.68317C5.04878 6.74866 5.06169 6.8135 5.08678 6.87398C5.11187 6.93447 5.14865 6.98941 5.195 7.03567L7.67 9.51067C7.865 9.70567 8.18 9.70567 8.375 9.51067L11.555 6.33067C11.6014 6.28441 11.6381 6.22947 11.6632 6.16898C11.6883 6.1085 11.7012 6.04366 11.7012 5.97817C11.7012 5.91269 11.6883 5.84785 11.6632 5.78736C11.6381 5.72687 11.6014 5.67193 11.555 5.62567L9.08 3.15067C9.03489 3.10347 8.98076 3.06582 8.92082 3.03993C8.86088 3.01405 8.79635 3.00048 8.73106 3.00001C8.66577 2.99955 8.60105 3.0122 8.54075 3.03722C8.48044 3.06224 8.42578 3.09912 8.38 3.14567Z" fill="white"/>
</svg>
