<svg width="44" height="48" viewBox="0 0 44 48" fill="none" xmlns="http://www.w3.org/2000/svg">
<path d="M5.69672 11.3229C6.15584 10.4856 6.81376 9.77335 7.61287 9.24857L21.0431 0L7.29494 22.44C7.29494 22.44 6.09198 20.4429 5.62798 19.4229C5.0437 18.1517 4.7502 16.7668 4.76872 15.3686C4.77751 13.9685 5.0943 12.5874 5.69672 11.3229ZM0.154496 26.8114C0.309646 28.9635 0.927079 31.0571 1.96489 32.9501C3.00271 34.8432 4.43662 36.4914 6.16931 37.7829L21.0259 48C21.0259 48 11.7287 34.7914 3.88368 21.6429C3.09123 20.25 2.55847 18.7253 2.31124 17.1429C2.19959 16.43 2.19959 15.7042 2.31124 14.9914C2.10501 15.36 1.70975 16.1314 1.70975 16.1314C0.917811 17.7342 0.375956 19.4483 0.10294 21.2143C-0.0517658 23.0776 -0.0345081 24.9512 0.154496 26.8114ZM38.0392 28.5857C37.5581 27.5743 36.3207 25.5686 36.3207 25.5686L22.6241 48L36.0887 38.76C36.8857 38.2317 37.5407 37.5166 37.9963 36.6771C38.608 35.417 38.9336 34.0377 38.95 32.6377C38.9663 31.2376 38.673 29.8512 38.0908 28.5771L38.0392 28.5857ZM43.4955 21.1971C43.3404 19.0451 42.7229 16.9515 41.6851 15.0584C40.6473 13.1654 39.2134 11.5172 37.4807 10.2257L22.6413 0C22.6413 0 31.9385 13.2086 39.7835 26.3571C40.576 27.75 41.1087 29.2747 41.356 30.8571C41.459 31.5706 41.459 32.2951 41.356 33.0086L41.9575 31.8686C42.7488 30.2723 43.2879 28.5635 43.5557 26.8029C43.7275 24.9411 43.7275 23.0675 43.5557 21.2057L43.4955 21.1971Z" fill="url(#paint0_linear_140_3801)"/>
<defs>
<linearGradient id="paint0_linear_140_3801" x1="40.5139" y1="84.3171" x2="11.2678" y2="-10.5321" gradientUnits="userSpaceOnUse">
<stop stop-color="#DE82FF"/>
<stop offset="1" stop-color="#7F6AFF"/>
</linearGradient>
</defs>
</svg>
